<svg width="107" height="33" viewBox="0 0 107 33" fill="none" xmlns="http://www.w3.org/2000/svg">
<path d="M97.7592 0H8.45951C8.13995 0 7.82038 0 7.49195 0C7.21677 0 6.95047 0.00813159 6.67529 0.00813159C6.08055 0.0162632 5.48581 0.0650527 4.89995 0.1545C4.31408 0.243948 3.74597 0.414711 3.21337 0.66679C2.68077 0.910738 2.19255 1.236 1.77534 1.62632C1.34926 2.0085 0.994192 2.45574 0.72789 2.94364C0.461589 3.43153 0.275178 3.95195 0.168658 4.48864C0.0710137 5.02532 0.0177534 5.57014 0.00887671 6.11496C0.00887671 6.36704 0 6.61912 0 6.86306V25.6552C0 25.9073 0.00887671 26.1512 0.0177534 26.4033C0.0266301 26.9481 0.0798904 27.4929 0.177534 28.0296C0.275178 28.5663 0.461589 29.0948 0.736767 29.5746C1.00307 30.0625 1.35814 30.5016 1.78422 30.8838C2.20142 31.2741 2.68964 31.5912 3.22225 31.8433C3.75485 32.0873 4.32296 32.2662 4.90882 32.3556C5.49469 32.4451 6.08943 32.4938 6.68417 32.502C6.95047 32.5182 7.21677 32.5264 7.49195 32.5264C7.82038 32.5264 8.13995 32.5264 8.45951 32.5264H97.7592C98.0788 32.5264 98.3984 32.5264 98.7179 32.5264C98.9842 32.5264 99.2683 32.5264 99.5346 32.5182C100.129 32.5101 100.724 32.4613 101.31 32.3719C101.896 32.2824 102.473 32.1035 103.005 31.8596C103.538 31.6156 104.017 31.2904 104.443 30.9C104.869 30.5179 105.216 30.0706 105.491 29.5909C105.757 29.103 105.944 28.5825 106.041 28.0459C106.139 27.5092 106.192 26.9644 106.21 26.4195C106.21 26.1675 106.21 25.9235 106.21 25.6714C106.219 25.3787 106.219 25.086 106.219 24.7851V7.75754C106.219 7.45667 106.219 7.16393 106.21 6.87119C106.21 6.61912 106.21 6.37517 106.21 6.12309C106.201 5.57827 106.148 5.03346 106.041 4.49677C105.944 3.96009 105.757 3.43966 105.491 2.95177C104.94 1.97598 104.071 1.17908 103.005 0.674922C102.473 0.430974 101.905 0.260211 101.31 0.162632C100.724 0.0731843 100.129 0.0243948 99.5346 0.0162632C99.2683 0.0162632 98.9842 0.00813159 98.7179 0.00813159C98.4072 0 98.0788 0 97.7592 0Z" fill="#9A9A9A"/>
<path d="M7.49214 31.821C7.22584 31.821 6.95954 31.821 6.69324 31.8128C6.134 31.8047 5.58364 31.764 5.03329 31.6827C4.51844 31.6014 4.03022 31.455 3.55975 31.2355C3.09816 31.0241 2.68096 30.7395 2.31701 30.4061C1.95307 30.0727 1.64238 29.6905 1.41159 29.2676C1.18079 28.8448 1.01213 28.3894 0.932242 27.9178C0.843475 27.4136 0.790214 26.9013 0.781338 26.389C0.772461 26.2183 0.772461 25.6491 0.772461 25.6491V6.86497C0.772461 6.86497 0.781338 6.30389 0.781338 6.14126C0.799091 5.62896 0.843475 5.1248 0.932242 4.62064C1.02101 4.14901 1.18079 3.69363 1.42046 3.27079C1.65126 2.84794 1.95307 2.46576 2.32589 2.13236C2.68096 1.79896 3.10704 1.51435 3.55975 1.30293C4.02134 1.09151 4.51844 0.937009 5.02441 0.863824C5.57477 0.782507 6.134 0.733718 6.69324 0.733718L7.49214 0.725586H98.7182L99.526 0.733718C100.076 0.741849 100.627 0.782507 101.177 0.863824C101.692 0.94514 102.189 1.09151 102.659 1.31106C103.583 1.74204 104.328 2.43323 104.808 3.27892C105.038 3.70177 105.198 4.15714 105.287 4.62064C105.376 5.1248 105.429 5.6371 105.438 6.15752C105.438 6.38521 105.438 6.63729 105.438 6.88124C105.447 7.19024 105.447 7.47485 105.447 7.76758V24.7871C105.447 25.0798 105.447 25.3726 105.438 25.6653C105.438 25.9337 105.438 26.1695 105.438 26.4216C105.429 26.9257 105.376 27.4299 105.287 27.9259C105.207 28.3976 105.038 28.8529 104.808 29.2839C104.577 29.6986 104.266 30.0808 103.902 30.4142C103.538 30.7476 103.121 31.0322 102.659 31.2436C102.189 31.4632 101.692 31.6095 101.177 31.6909C100.627 31.7722 100.076 31.821 99.5171 31.821C99.2597 31.8291 98.9845 31.8291 98.7182 31.8291H97.7595L7.49214 31.821Z" fill="black"/>
<path d="M21.9877 16.5096C22.0055 15.1272 22.7955 13.8587 24.0826 13.1349C23.266 12.0697 21.9522 11.4191 20.5408 11.3785C19.0495 11.2321 17.6026 12.1917 16.8481 12.1917C16.0758 12.1917 14.9041 11.3866 13.6436 11.411C11.9837 11.4598 10.4835 12.3055 9.67572 13.631C7.96251 16.3551 9.24076 20.356 10.883 22.5597C11.7085 23.6412 12.6672 24.8447 13.9277 24.7959C15.1615 24.7471 15.6231 24.0803 17.1055 24.0803C18.5791 24.0803 19.0052 24.7959 20.2923 24.7715C21.6149 24.7553 22.4493 23.69 23.2394 22.6003C23.8341 21.836 24.2868 20.9821 24.5886 20.0876C23.0086 19.4777 21.9877 18.0709 21.9877 16.5096Z" fill="white"/>
<path d="M19.5645 9.93016C20.2835 9.14114 20.6386 8.11622 20.5498 7.09131C19.4491 7.19705 18.4283 7.67697 17.7004 8.44159C16.9814 9.18994 16.6174 10.1742 16.6884 11.1747C17.8069 11.1828 18.8632 10.7273 19.5645 9.93016Z" fill="white"/>
<path d="M37.5485 22.0724H33.3498L32.3378 24.8047H30.5625L34.5393 14.7051H36.3856L40.3624 24.8047H38.5516L37.5485 22.0724ZM33.7848 20.812H37.1135L35.4713 16.3802H35.427L33.7848 20.812Z" fill="white"/>
<path d="M48.9645 21.1184C48.9645 23.4032 47.6241 24.8749 45.6091 24.8749C44.5705 24.9237 43.5851 24.4277 43.0792 23.5902H43.0437V27.2329H41.3926V17.435H42.9904V18.6628H43.017C43.5408 17.8334 44.5261 17.3293 45.5735 17.3618C47.6241 17.3618 48.9645 18.8336 48.9645 21.1184ZM47.269 21.1184C47.269 19.6304 46.4257 18.6465 45.1475 18.6465C43.887 18.6465 43.0348 19.6467 43.0348 21.1184C43.0348 22.5982 43.887 23.5983 45.1475 23.5983C46.4257 23.5983 47.269 22.6226 47.269 21.1184Z" fill="white"/>
<path d="M57.8052 21.1184C57.8052 23.4032 56.4648 24.8749 54.4498 24.8749C53.4112 24.9237 52.4259 24.4277 51.9199 23.5902H51.8844V27.2329H50.2422V17.435H51.84V18.6628H51.8666C52.3904 17.8334 53.3757 17.3293 54.4231 17.3618C56.4648 17.3618 57.8052 18.8336 57.8052 21.1184ZM56.1097 21.1184C56.1097 19.6304 55.2664 18.6465 53.9882 18.6465C52.7277 18.6465 51.8755 19.6467 51.8755 21.1184C51.8755 22.5982 52.7277 23.5983 53.9882 23.5983C55.2753 23.5983 56.1097 22.6226 56.1097 21.1184Z" fill="white"/>
<path d="M63.6553 21.9894C63.7796 22.9895 64.8359 23.6481 66.2917 23.6481C67.6853 23.6481 68.6795 22.9895 68.6795 22.0869C68.6795 21.3064 68.0759 20.8348 66.6467 20.5095L65.2176 20.1924C63.1937 19.7452 62.2528 18.8752 62.2528 17.4685C62.2528 15.7285 63.9127 14.5332 66.265 14.5332C68.5907 14.5332 70.1885 15.7285 70.2418 17.4685H68.573C68.4753 16.4603 67.561 15.8504 66.2384 15.8504C64.9158 15.8504 64.0015 16.4684 64.0015 17.3628C64.0015 18.0783 64.5785 18.493 65.9987 18.8183L67.2148 19.0947C69.4784 19.5826 70.4193 20.4201 70.4193 21.8918C70.4193 23.7782 68.7771 24.9653 66.1674 24.9653C63.7263 24.9653 62.0753 23.8107 61.9688 21.9812L63.6553 21.9894Z" fill="white"/>
<path d="M73.987 15.6958V17.4359H75.5138V18.6313H73.987V22.6889C73.987 23.3232 74.2888 23.6159 74.9634 23.6159C75.141 23.6159 75.3274 23.5996 75.5049 23.5834V24.7706C75.2031 24.8194 74.8924 24.8438 74.5906 24.8438C72.9661 24.8438 72.327 24.2827 72.327 22.8597V18.6394H71.1553V17.4441H72.327V15.6958H73.987Z" fill="white"/>
<path d="M76.4023 21.1187C76.4023 18.8009 77.8936 17.3452 80.2104 17.3452C82.545 17.3452 84.0186 18.8009 84.0186 21.1187C84.0186 23.4445 82.545 24.8921 80.2104 24.8921C77.8759 24.8921 76.4023 23.4445 76.4023 21.1187ZM82.3409 21.1187C82.3409 19.5328 81.542 18.5895 80.2104 18.5895C78.8789 18.5895 78.08 19.5328 78.08 21.1187C78.08 22.7126 78.8701 23.6478 80.2104 23.6478C81.5508 23.6478 82.3409 22.7126 82.3409 21.1187Z" fill="white"/>
<path d="M85.3848 17.4351H86.9559V18.6875H86.9914C87.2133 17.8824 88.0211 17.3294 88.9265 17.3538C89.1129 17.3538 89.3082 17.3701 89.4946 17.4107V18.8257C89.255 18.7606 89.0064 18.7281 88.7579 18.7362C87.8436 18.7037 87.0624 19.3543 87.0269 20.2C87.0269 20.2813 87.0269 20.3545 87.0358 20.4358V24.8027H85.3848V17.4351Z" fill="white"/>
<path d="M97.0931 22.6394C96.8712 23.9731 95.4509 24.8921 93.6312 24.8921C91.2966 24.8921 89.8408 23.4608 89.8408 21.1512C89.8408 18.8416 91.2966 17.3452 93.5602 17.3452C95.7794 17.3452 97.1819 18.744 97.1819 20.9804V21.5009H91.5096V21.5903C91.412 22.6475 92.2553 23.5746 93.4093 23.6722C93.498 23.6804 93.5868 23.6804 93.6667 23.6804C94.4656 23.7454 95.2201 23.3307 95.5219 22.6475L97.0931 22.6394ZM91.5185 20.4355H95.5397C95.6018 19.4596 94.7852 18.622 93.72 18.5732C93.6667 18.5732 93.6223 18.5732 93.5691 18.5732C92.4417 18.5651 91.5274 19.3946 91.5185 20.4274V20.4355Z" fill="white"/>
<path d="M33.5805 7.10088C34.8676 7.01956 35.995 7.9059 36.0838 9.08497C36.0926 9.22321 36.0926 9.36957 36.0749 9.50781C36.0749 11.0609 35.1606 11.9473 33.5805 11.9473H31.6631V7.10088H33.5805ZM32.4886 11.2642H33.4917C34.406 11.313 35.1961 10.6706 35.2493 9.83307C35.2582 9.72736 35.2493 9.62165 35.2316 9.51594C35.3559 8.67839 34.7167 7.9059 33.8024 7.79206C33.6959 7.7758 33.5894 7.7758 33.4828 7.78393H32.4886V11.2642Z" fill="white"/>
<path d="M36.9977 10.1162C36.9 9.16481 37.6634 8.31915 38.702 8.22158C39.7405 8.13213 40.6637 8.83142 40.7702 9.78279C40.7791 9.89663 40.7791 10.0023 40.7702 10.1162C40.8678 11.0675 40.1133 11.9213 39.0659 12.0108C38.0273 12.1002 37.0953 11.4091 36.9977 10.4496C36.9888 10.3438 36.9888 10.23 36.9977 10.1162ZM39.9535 10.1162C39.9535 9.3193 39.563 8.85582 38.8795 8.85582C38.196 8.85582 37.8054 9.3193 37.8054 10.1162C37.8054 10.913 38.1871 11.3765 38.8795 11.3765C39.5719 11.3765 39.9535 10.913 39.9535 10.1162Z" fill="white"/>
<path d="M45.7771 11.9531H44.9605L44.135 9.25382H44.0729L43.2473 11.9531H42.4396L41.3389 8.29443H42.1378L42.8568 11.0913H42.9189L43.7444 8.29443H44.4989L45.3244 11.0913H45.3866L46.0967 8.29443H46.8867L45.7771 11.9531Z" fill="white"/>
<path d="M47.8008 8.28749H48.5642V8.87305H48.6263C48.8305 8.44201 49.3098 8.18176 49.8158 8.22242C50.5348 8.17363 51.1562 8.6616 51.2095 9.32036C51.2183 9.40982 51.2095 9.49928 51.2006 9.58061V11.9473H50.4106V9.75953C50.4106 9.17397 50.1354 8.88118 49.5495 8.88118C49.0435 8.85679 48.6174 9.21463 48.5908 9.6782C48.5908 9.71887 48.5908 9.76766 48.5908 9.80833V11.9473H47.8008V8.28749Z" fill="white"/>
<path d="M52.4521 6.86279H53.2421V11.9546H52.4521V6.86279Z" fill="white"/>
<path d="M54.3434 10.1162C54.2457 9.16481 55.0091 8.31915 56.0477 8.22158C57.0863 8.13213 58.0095 8.83142 58.116 9.78279C58.1249 9.89663 58.1249 10.0023 58.116 10.1162C58.2137 11.0675 57.4591 11.9213 56.4117 12.0108C55.3642 12.1002 54.441 11.4091 54.3434 10.4496C54.3256 10.3438 54.3256 10.23 54.3434 10.1162ZM57.2994 10.1162C57.2994 9.3193 56.9088 8.85582 56.2253 8.85582C55.5418 8.85582 55.1512 9.3193 55.1512 10.1162C55.1512 10.913 55.5329 11.3765 56.2253 11.3765C56.9088 11.3765 57.2994 10.913 57.2994 10.1162Z" fill="white"/>
<path d="M58.9414 10.9139C58.9414 10.2551 59.474 9.8728 60.4238 9.824L61.5067 9.76707V9.44985C61.5067 9.05944 61.2316 8.84797 60.6901 8.84797C60.2463 8.84797 59.9445 8.99437 59.8557 9.25465H59.0923C59.1722 8.62836 59.8202 8.22168 60.7256 8.22168C61.7287 8.22168 62.2968 8.67716 62.2968 9.44985V11.955H61.5334V11.4426H61.4712C61.2138 11.8167 60.7522 12.0363 60.2729 12.0201C59.6071 12.0851 59.0124 11.6378 58.9503 11.0359C58.9414 10.9871 58.9414 10.9546 58.9414 10.9139ZM61.5156 10.6048V10.2958L60.5392 10.3527C59.9888 10.3852 59.7403 10.556 59.7403 10.8814C59.7403 11.2148 60.051 11.4019 60.4771 11.4019C60.9919 11.4507 61.4535 11.101 61.5067 10.6292C61.5067 10.6211 61.5067 10.613 61.5156 10.6048Z" fill="white"/>
<path d="M63.335 10.1161C63.335 8.96117 63.983 8.22918 64.9949 8.22918C65.5009 8.20478 65.9802 8.45691 66.2199 8.87171H66.282V6.86279H67.072V11.9542H66.3086V11.3767H66.2465C65.9891 11.7834 65.5097 12.0355 64.9949 12.0193C63.9741 12.0111 63.335 11.2792 63.335 10.1161ZM64.1516 10.1161C64.1516 10.8969 64.5511 11.3605 65.2168 11.3605C65.8826 11.3605 66.2909 10.8888 66.2909 10.1161C66.2909 9.35157 65.8737 8.87171 65.2168 8.87171C64.5511 8.87984 64.1516 9.35157 64.1516 10.1161Z" fill="white"/>
<path d="M70.3297 10.1161C70.2321 9.16468 70.9955 8.31898 72.034 8.2214C73.0726 8.12382 73.9958 8.83128 74.1023 9.78269C74.1112 9.89653 74.1112 10.0022 74.1023 10.1161C74.2 11.0675 73.4455 11.9213 72.398 12.0108C71.3594 12.1002 70.4273 11.409 70.3297 10.4495C70.3208 10.3438 70.3208 10.2299 70.3297 10.1161ZM73.2857 10.1161C73.2857 9.31918 72.8951 8.85567 72.2116 8.85567C71.5281 8.85567 71.1375 9.31918 71.1375 10.1161C71.1375 10.913 71.5192 11.3765 72.2116 11.3765C72.8951 11.3765 73.2857 10.913 73.2857 10.1161Z" fill="white"/>
<path d="M75.1592 8.28749H75.9226V8.87305H75.9847C76.1889 8.44201 76.6682 8.18176 77.1742 8.22242C77.8932 8.17363 78.5146 8.6616 78.5679 9.32036C78.5767 9.40982 78.5679 9.49928 78.559 9.58061V11.9473H77.7689V9.75953C77.7689 9.17397 77.4938 8.88118 76.9079 8.88118C76.4019 8.85679 75.9758 9.21463 75.9492 9.6782C75.9492 9.71887 75.9492 9.76766 75.9492 9.80833V11.9473H75.1592V8.28749Z" fill="white"/>
<path d="M83.0149 7.37598V8.30319H83.8848V8.91319H83.0149V10.8001C83.0149 11.1824 83.1835 11.3532 83.583 11.3532C83.6806 11.3532 83.7871 11.3451 83.8848 11.337V11.9388C83.7427 11.9632 83.6007 11.9714 83.4587 11.9795C82.5799 11.9795 82.2337 11.6948 82.2337 10.9872V8.92133H81.6035V8.31132H82.2337V7.37598H83.0149Z" fill="white"/>
<path d="M84.9502 6.86279H85.7314V8.87999H85.7935C86.0065 8.4489 86.4948 8.18861 87.0096 8.22115C87.7375 8.18861 88.3589 8.69291 88.3944 9.35989C88.4033 9.43309 88.3944 9.51443 88.3855 9.58764V11.9546H87.5955V9.76658C87.5955 9.18094 87.3025 8.88812 86.7433 8.88812C86.2285 8.84746 85.7757 9.19721 85.7402 9.66898C85.7402 9.71778 85.7402 9.76658 85.7402 9.81538V11.9546H84.9502V6.86279Z" fill="white"/>
<path d="M92.9925 10.9625C92.7706 11.6538 92.0427 12.1011 91.2615 12.0198C90.2585 12.0442 89.4241 11.3203 89.3975 10.4013C89.3975 10.3119 89.3975 10.2224 89.4152 10.1329C89.2821 9.20577 89.9922 8.35994 90.9953 8.23795C91.084 8.22981 91.1728 8.22168 91.2527 8.22168C92.3622 8.22168 93.0369 8.92112 93.0369 10.0679V10.32H90.2141V10.3607C90.1608 10.8974 90.5958 11.361 91.1817 11.4098C91.2172 11.4098 91.2527 11.4098 91.2793 11.4098C91.661 11.4505 92.0427 11.2797 92.2291 10.9625H92.9925ZM90.223 9.78321H92.238C92.2735 9.29523 91.8829 8.87232 91.3503 8.83979C91.3148 8.83979 91.2882 8.83979 91.2527 8.83979C90.6846 8.83165 90.223 9.24643 90.2141 9.76695C90.223 9.76695 90.223 9.77508 90.223 9.78321Z" fill="white"/>
</svg>
