<svg width="118" height="32" viewBox="0 0 118 32" fill="none" xmlns="http://www.w3.org/2000/svg">
<path d="M113.645 31.916H4.77099C2.37575 31.916 0.416016 30.1207 0.416016 27.9265V3.9895C0.416016 1.79528 2.37575 0 4.77099 0H113.645C116.041 0 118 1.79528 118 3.9895V27.9265C118 30.1207 116.041 31.916 113.645 31.916Z" fill="black"/>
<path d="M113.645 0.63832C115.666 0.63832 117.303 2.13837 117.303 3.9895V27.9265C117.303 29.7776 115.666 31.2777 113.645 31.2777H4.77099C2.75028 31.2777 1.11281 29.7776 1.11281 27.9265V3.9895C1.11281 2.13837 2.75028 0.63832 4.77099 0.63832H113.645ZM113.645 0H4.77099C2.37575 0 0.416016 1.79528 0.416016 3.9895V27.9265C0.416016 30.1207 2.37575 31.916 4.77099 31.916H113.645C116.041 31.916 118 30.1207 118 27.9265V3.9895C118 1.79528 116.041 0 113.645 0Z" fill="#9A9A9A"/>
<path d="M41.7184 8.17157C41.7184 8.8419 41.5006 9.37658 41.0652 9.76761C40.5774 10.2384 39.9329 10.4778 39.149 10.4778C38.3913 10.4778 37.7555 10.2384 37.2242 9.75963C36.6929 9.28081 36.4316 8.6823 36.4316 7.98004C36.4316 7.2698 36.6929 6.67927 37.2242 6.20046C37.7555 5.72164 38.3913 5.48224 39.149 5.48224C39.5236 5.48224 39.8807 5.54608 40.2203 5.68174C40.56 5.81741 40.83 5.99297 41.039 6.21642L40.5774 6.63937C40.229 6.2643 39.7587 6.07277 39.149 6.07277C38.6003 6.07277 38.1213 6.24834 37.7207 6.60745C37.32 6.95858 37.1197 7.42143 37.1197 7.98802C37.1197 8.55462 37.32 9.01747 37.7207 9.3686C38.1213 9.71973 38.6003 9.90327 39.149 9.90327C39.7326 9.90327 40.2203 9.72771 40.6123 9.3686C40.8648 9.13717 41.0129 8.80998 41.0477 8.39501H39.149V7.82044H41.6835C41.701 7.94014 41.7184 8.05984 41.7184 8.17157Z" fill="white" stroke="white" stroke-width="0.2" stroke-miterlimit="10"/>
<path d="M45.734 6.17708H43.3562V7.69331H45.4988V8.26788H43.3562V9.7841H45.734V10.3746H42.6855V5.58655H45.734V6.17708Z" fill="white" stroke="white" stroke-width="0.2" stroke-miterlimit="10"/>
<path d="M48.5646 10.3746H47.8939V6.17708H46.4307V5.58655H50.0192V6.17708H48.5559L48.5646 10.3746Z" fill="white" stroke="white" stroke-width="0.2" stroke-miterlimit="10"/>
<path d="M52.623 10.3746V5.58655H53.2938V10.3746H52.623Z" fill="white" stroke="white" stroke-width="0.2" stroke-miterlimit="10"/>
<path d="M56.2726 10.3746H55.6019V6.17708H54.1387V5.58655H57.7272V6.17708H56.2639L56.2726 10.3746Z" fill="white" stroke="white" stroke-width="0.2" stroke-miterlimit="10"/>
<path d="M64.5295 9.75051C64.0156 10.2372 63.3798 10.4766 62.6133 10.4766C61.8468 10.4766 61.211 10.2372 60.6971 9.75051C60.1832 9.26381 59.9307 8.67339 59.9307 7.97925C59.9307 7.28511 60.1832 6.68671 60.6971 6.20799C61.211 5.72129 61.8468 5.48193 62.6133 5.48193C63.3711 5.48193 64.0069 5.72129 64.5295 6.20799C65.0434 6.69469 65.3047 7.28511 65.3047 7.97925C65.296 8.68137 65.0434 9.27179 64.5295 9.75051ZM61.1936 9.35157C61.5768 9.71061 62.0559 9.88614 62.6133 9.88614C63.1708 9.88614 63.6498 9.71061 64.033 9.35157C64.4163 8.99254 64.6166 8.53775 64.6166 7.97925C64.6166 7.42074 64.425 6.96596 64.033 6.60692C63.6498 6.24788 63.1708 6.07235 62.6133 6.07235C62.0559 6.07235 61.5768 6.24788 61.1936 6.60692C60.8104 6.96596 60.61 7.42074 60.61 7.97925C60.61 8.53775 60.8104 8.99254 61.1936 9.35157Z" fill="white" stroke="white" stroke-width="0.2" stroke-miterlimit="10"/>
<path d="M66.2461 10.3746V5.58655H67.0648L69.6081 9.31327H69.6343L69.6081 8.38758V5.58655H70.2788V10.3746H69.582L66.9255 6.47234H66.8993L66.9255 7.39804V10.3746H66.2461Z" fill="white" stroke="white" stroke-width="0.2" stroke-miterlimit="10"/>
<path d="M59.7661 17.3537C57.7192 17.3537 56.0469 18.7819 56.0469 20.7448C56.0469 22.6997 57.7192 24.1359 59.7661 24.1359C61.8129 24.1359 63.4852 22.6997 63.4852 20.7448C63.4852 18.7819 61.8129 17.3537 59.7661 17.3537ZM59.7661 22.8034C58.6425 22.8034 57.6757 21.9576 57.6757 20.7448C57.6757 19.524 58.6425 18.6862 59.7661 18.6862C60.8896 18.6862 61.8564 19.524 61.8564 20.7448C61.8564 21.9576 60.8809 22.8034 59.7661 22.8034ZM51.6484 17.3537C49.6015 17.3537 47.9292 18.7819 47.9292 20.7448C47.9292 22.6997 49.6015 24.1359 51.6484 24.1359C53.6952 24.1359 55.3675 22.6997 55.3675 20.7448C55.3675 18.7819 53.6952 17.3537 51.6484 17.3537ZM51.6484 22.8034C50.5248 22.8034 49.558 21.9576 49.558 20.7448C49.558 19.524 50.5248 18.6862 51.6484 18.6862C52.772 18.6862 53.7388 19.524 53.7388 20.7448C53.7388 21.9576 52.772 22.8034 51.6484 22.8034ZM41.9978 18.3989V19.8352H45.7605C45.6472 20.6411 45.3511 21.2395 44.9069 21.6464C44.3582 22.1491 43.5046 22.6997 42.0065 22.6997C39.6896 22.6997 37.878 20.9921 37.878 18.8697C37.878 16.7473 39.6896 15.0398 42.0065 15.0398C43.252 15.0398 44.1665 15.4866 44.8372 16.0691L45.9434 15.0557C45.0027 14.2339 43.7572 13.6035 41.9978 13.6035C38.8274 13.6035 36.1621 15.9653 36.1621 18.8777C36.1621 21.7821 38.8274 24.1519 41.9978 24.1519C43.7136 24.1519 45.0027 23.6412 46.0131 22.6757C47.0495 21.7262 47.3718 20.3857 47.3718 19.3086C47.3718 18.9734 47.3457 18.6623 47.2847 18.4069H41.9978V18.3989ZM81.4625 19.516C81.1577 18.758 80.217 17.3537 78.2921 17.3537C76.3846 17.3537 74.7994 18.7261 74.7994 20.7448C74.7994 22.6438 76.3672 24.1359 78.475 24.1359C80.1734 24.1359 81.1577 23.1864 81.5583 22.6358L80.2954 21.8619C79.8773 22.4284 79.3025 22.8034 78.475 22.8034C77.6476 22.8034 77.0553 22.4523 76.6808 21.7741L81.6367 19.899L81.4625 19.516ZM76.4108 20.649C76.3672 19.3405 77.5169 18.6702 78.3444 18.6702C78.9889 18.6702 79.5376 18.9655 79.7205 19.3884L76.4108 20.649ZM72.3868 23.9364H74.0155V13.9626H72.3868V23.9364ZM69.7215 18.1117H69.6605C69.2947 17.7127 68.5979 17.3537 67.7095 17.3537C65.8543 17.3537 64.1559 18.8458 64.1559 20.7608C64.1559 22.6598 65.8543 24.1439 67.7095 24.1439C68.5892 24.1439 69.2947 23.7848 69.6605 23.3699H69.7128V23.8566C69.7128 25.1572 68.955 25.8514 67.7356 25.8514C66.7427 25.8514 66.1243 25.1971 65.8717 24.6466L64.452 25.1891C64.8614 26.0908 65.9414 27.1919 67.7356 27.1919C69.6431 27.1919 71.2545 26.1626 71.2545 23.6572V17.5611H69.7128L69.7215 18.1117ZM67.8489 22.8034C66.7253 22.8034 65.7846 21.9417 65.7846 20.7608C65.7846 19.5639 66.7253 18.6942 67.8489 18.6942C68.955 18.6942 69.826 19.5719 69.826 20.7608C69.8347 21.9417 68.9637 22.8034 67.8489 22.8034ZM89.0924 13.9626H85.1991V23.9364H86.8278V20.1543H89.1011C90.9041 20.1543 92.6722 18.9575 92.6722 17.0585C92.6722 15.1594 90.8867 13.9626 89.0924 13.9626ZM89.1273 18.766H86.8191V15.343H89.1273C90.3467 15.343 91.0347 16.2685 91.0347 17.0505C91.0347 17.8324 90.3467 18.766 89.1273 18.766ZM99.1785 17.3377C98.0027 17.3377 96.7833 17.8165 96.2781 18.8617L97.724 19.4123C98.0288 18.8617 98.6037 18.6782 99.2047 18.6782C100.041 18.6782 100.903 19.141 100.912 19.9628V20.0666C100.616 19.915 99.9886 19.6836 99.2134 19.6836C97.6543 19.6836 96.0778 20.4655 96.0778 21.9257C96.0778 23.2582 97.3495 24.1199 98.7779 24.1199C99.8666 24.1199 100.476 23.6731 100.851 23.1465H100.903V23.9205H102.471V20.0985C102.48 18.3271 101.034 17.3377 99.1785 17.3377ZM98.9782 22.8034C98.4469 22.8034 97.7066 22.556 97.7066 21.9576C97.7066 21.1916 98.6298 20.8964 99.4311 20.8964C100.145 20.8964 100.485 21.04 100.912 21.2315C100.79 22.1491 99.9189 22.8034 98.9782 22.8034ZM108.193 17.5532L106.329 21.8778H106.277L104.344 17.5532H102.593L105.493 23.6013L103.838 26.9605H105.537L110.005 17.5532H108.193ZM93.5606 23.9364H95.1894V13.9626H93.5606V23.9364Z" fill="white"/>
<path d="M9.50906 6.01728C9.25647 6.26463 9.1084 6.64761 9.1084 7.13432V24.7836C9.1084 25.2783 9.25647 25.6613 9.50906 25.9007L9.57003 25.9565L20.3617 16.0787V15.959V15.8393L9.57003 5.96143L9.50906 6.01728Z" fill="url(#paint0_linear)"/>
<path d="M23.9586 19.3735L20.3613 16.0779V15.9583V15.8386L23.9586 12.543L24.0369 12.5829L28.2961 14.8012C29.5155 15.4316 29.5155 16.4689 28.2961 17.1073L24.0369 19.3257L23.9586 19.3735Z" fill="url(#paint1_linear)"/>
<path d="M24.037 19.3249L20.3614 15.9575L9.50879 25.9C9.90945 26.291 10.5714 26.3389 11.3205 25.9479L24.037 19.3249Z" fill="url(#paint2_linear)"/>
<path d="M24.0367 12.5905L11.3116 5.96813C10.5626 5.57717 9.90065 5.62505 9.5 6.01601L20.3612 15.9575L24.0367 12.5905Z" fill="url(#paint3_linear)"/>
<path opacity="0.2" d="M23.9587 19.2529L11.3118 25.8372C10.6063 26.2043 9.97042 26.1804 9.56976 25.8452L9.50879 25.901L9.56976 25.9569C9.97913 26.2921 10.6063 26.316 11.3118 25.9489L24.0371 19.3248L23.9587 19.2529Z" fill="black"/>
<path opacity="0.12" d="M9.50899 25.7874C9.25644 25.5399 9.1084 25.1566 9.1084 24.6694V24.7892C9.1084 25.2843 9.25644 25.6677 9.50899 25.9072L9.56995 25.8513L9.50899 25.7874Z" fill="black"/>
<path opacity="0.12" d="M28.2964 16.9948L23.9502 19.2529L24.0286 19.3247L28.2877 17.1065C28.8974 16.7873 29.2023 16.3724 29.2023 15.9575C29.1587 16.3325 28.8539 16.7076 28.2964 16.9948Z" fill="black"/>
<path opacity="0.25" d="M11.3119 6.0806L28.2964 14.9211C28.8451 15.2083 29.1587 15.5753 29.2109 15.9583C29.2109 15.5434 28.9061 15.1205 28.2964 14.8094L11.3119 5.9689C10.0925 5.33857 9.09961 5.86517 9.09961 7.14178V7.26146C9.09961 5.97688 10.1013 5.45028 11.3119 6.0806Z" fill="white"/>
<defs>
<linearGradient id="paint0_linear" x1="19.4058" y1="6.9528" x2="6.06656" y2="21.5142" gradientUnits="userSpaceOnUse">
<stop stop-color="#00A0FF"/>
<stop offset="0.00657445" stop-color="#00A1FF"/>
<stop offset="0.2601" stop-color="#00BEFF"/>
<stop offset="0.5122" stop-color="#00D2FF"/>
<stop offset="0.7604" stop-color="#00DFFF"/>
<stop offset="1" stop-color="#00E3FF"/>
</linearGradient>
<linearGradient id="paint1_linear" x1="29.8852" y1="15.9583" x2="8.80968" y2="15.9583" gradientUnits="userSpaceOnUse">
<stop stop-color="#FFE000"/>
<stop offset="0.4087" stop-color="#FFBD00"/>
<stop offset="0.7754" stop-color="#FFA500"/>
<stop offset="1" stop-color="#FF9C00"/>
</linearGradient>
<linearGradient id="paint2_linear" x1="22.0385" y1="17.7885" x2="3.94794" y2="37.5351" gradientUnits="userSpaceOnUse">
<stop stop-color="#FF3A44"/>
<stop offset="1" stop-color="#C31162"/>
</linearGradient>
<linearGradient id="paint3_linear" x1="6.76876" y1="0.143092" x2="14.8462" y2="8.96058" gradientUnits="userSpaceOnUse">
<stop stop-color="#32A071"/>
<stop offset="0.0685" stop-color="#2DA771"/>
<stop offset="0.4762" stop-color="#15CF74"/>
<stop offset="0.8009" stop-color="#06E775"/>
<stop offset="1" stop-color="#00F076"/>
</linearGradient>
</defs>
</svg>
